<svg width="69" height="72" viewBox="0 0 69 72" fill="none" xmlns="http://www.w3.org/2000/svg">
<path d="M34.034 71.8436C29.342 71.8436 24.922 70.9105 20.774 69.0086C16.626 67.1066 13.022 64.5587 9.962 61.329C6.902 58.0993 4.488 54.2954 2.686 49.9173C0.884 45.5392 0 40.874 0 35.9218C0 30.9695 0.884 26.3044 2.686 21.9263C4.488 17.5482 6.902 13.7443 9.962 10.5146C13.022 7.28484 16.626 4.73694 20.774 2.83499C24.922 0.933033 29.342 0 34.034 0C38.726 0 43.146 0.933033 47.294 2.83499C51.442 4.73694 55.046 7.28484 58.106 10.5146C61.166 13.7443 63.58 17.5482 65.382 21.9263C67.184 26.3044 68.068 30.9695 68.068 35.9218C68.068 40.874 67.184 45.5392 65.382 49.9173C63.58 54.2954 61.166 58.0993 58.106 61.329C55.046 64.5587 51.442 67.1066 47.294 69.0086C43.146 70.9105 38.726 71.8436 34.034 71.8436ZM34.034 64.6664C41.616 64.6664 48.076 61.8673 53.346 56.305C58.616 50.7427 61.268 43.9602 61.268 35.9218C61.268 27.8833 58.616 21.1009 53.346 15.5386C48.076 9.97628 41.65 7.17718 34.034 7.17718C26.418 7.17718 19.992 9.97628 14.722 15.5386C9.452 21.1009 6.8 27.8833 6.8 35.9218C6.8 43.9602 9.452 50.7427 14.722 56.305C19.992 61.8673 26.418 64.6664 34.034 64.6664Z" fill="#6374A2"/>
<path d="M34.1023 52.3932C35.9723 52.3932 37.5023 50.7783 37.5023 48.8046V31.7947L41.1403 35.6345C42.4663 37.034 44.5743 37.034 45.9003 35.6345C47.2263 34.2349 47.2263 32.01 45.9003 30.6105L36.2783 20.4548C35.0543 19.1629 33.1163 19.1629 31.8923 20.4548L22.1683 30.7181C20.8423 32.1177 20.8423 34.3426 22.1683 35.7422C23.4943 37.1417 25.6023 37.1417 26.9283 35.7422L30.6683 31.7947V48.8046C30.6683 50.7783 32.1983 52.3932 34.0683 52.3932H34.1023Z" fill="#6374A2"/>
</svg>
