<?xml version="1.0" encoding="UTF-8"?>
<svg xmlns="http://www.w3.org/2000/svg" id="a" data-name="Ebene 1" viewBox="0 0 409.112 366.5784" width="200" height="179">
  <path d="m325.61431,73.53799c81.83803,25.93462,109.29813,129.33439,56.29889,195.45602-57.10037,71.19145-173.11035,57.86067-207.68478-28.25979-19.6599-48.88234-3.51036-108.0891,41.33789-137.00412,51.50038-34.08838,124.86239-16.67068,149.15831,41.62617,6.47555,15.89521,8.38391,33.59499,5.25764,50.31331.3616-34.55953-19.45134-67.93067-50.53019-82.16495-1.40692-.77933-3.79403-1.63089-5.29314-2.2515-3.47731-1.47478-7.29792-2.57803-10.93739-3.52835-36.38932-9.60321-77.54813,6.69543-96.90782,38.79557-23.68889,37.28661-15.23862,90.61161,18.7389,118.60801,32.90456,28.62737,84.45686,29.96372,120.0891,5.24449,26.01267-17.28668,42.52312-47.1057,45.70972-78.10356,5.56466-48.27151-21.90283-96.64811-65.23713-118.7313h0Z" style="fill: red;"/>
  <path d="m46.89927,114.14251C6.9063,161.12481.56087,229.27926,33.84774,281.44605c43.07368,68.59606,137.94013,81.05883,194.93109,22.46047,40.05526-41.097,42.48206-107.34154,5.63208-151.30978-37.03421-45.58457-104.99265-52.31463-150.91999-15.94036-49.53619,38.11676-54.14173,111.72392-12.52685,158.07408-7.90616-6.70791-14.94535-14.60604-20.72832-23.44363-5.85152-8.89186-10.32016-18.652-13.36943-28.8689-13.03904-42.72172,1.32113-90.39053,34.74684-119.81882,41.52543-37.96667,106.56495-42.88713,153.85915-12.3968,40.28655,25.42089,64.70909,72.60653,62.87292,120.17936-3.13548,98.65026-106.52569,162.20493-196.97886,125.84143C-6.65915,316.87957-32.54141,184.97631,46.89927,114.14251h0Z" style="fill: #4d90fe;"/>
  <path d="m240.78616,10.07876c-24.635-5.73832-50.26487-3.73325-72.70161,7.58566-2.57182,1.05573-5.91167,3.28858-8.35453,4.67913-1.19562.63949-2.82355,1.88097-3.94915,2.66088-1.13365.82951-2.78621,1.88146-3.8403,2.77973.00003.00005-3.62648,3.03868-3.62648,3.03868-1.14307.77265-2.45413,2.24183-3.46966,3.18426-12.25602,11.58717-21.39901,26.72752-25.05673,43.17104-8.03036,33.65542,7.11937,70.58353,35.7968,89.55481,42.08696,29.13603,104.30935,8.06909,113.89441-43.71808,6.3946-35.16473-16.44975-71.90397-51.69042-81.72871-25.05428-7.25807-53.37825.66372-71.59159,20.20441,18.66792-32.26811,62.52145-43.08962,95.98148-27.32151,35.64168,15.7939,57.57936,56.677,51.18966,95.27494-4.55679,31.77256-27.77933,59.20946-57.27984,71.13877-37.18208,15.40319-81.30507,5.91901-109.58395-22.4723C72.68807,125.23535,87.59735,36.52201,157.94899,7.53851c26.50194-10.82023,57.29504-10.00905,82.83716,2.54025h0Z" style="fill: #509e2f;"/>
</svg>
